<?xml version="1.0" encoding="UTF-8"?>
<svg id="Layer_2" data-name="Layer 2" xmlns="http://www.w3.org/2000/svg" viewBox="0 0 109.8 121.08">
  <g id="Layer_1-2" data-name="Layer 1">
    <g>
      <path d="M9.52,5.66c1.05,1,1.88,2,2.48,3,.6,1,1.05,1.83,1.35,2.5.6,1.33,1.17,2.61,1.73,3.83.55,1.22,1.1,2.5,1.65,3.83.2.49.41,1.02.63,1.54-2.44,2.62-4.55,5.33-6.29,8.16-1.8,2.9-3.28,5.77-4.42,8.62-1.15,2.85-2.05,5.58-2.7,8.17-.13.53-.25,1.06-.37,1.58h18.26c.45-2.43,1.04-4.83,1.76-7.21.11-.36.23-.71.34-1.06.97,2.76,1.95,5.51,2.92,8.27h17.6c-2.04-5.82-3.89-11.23-5.53-16.18-1.55-4.66-2.84-8.71-3.88-12.16,3.03-3.37,6.53-6.21,10.51-8.49,5.4-3.1,11.55-4.65,18.45-4.65,5,0,9.72.9,14.17,2.7,3.92,1.59,7.49,3.68,10.72,6.28-.14.92-.32,1.98-.55,3.17-.6,3.17-1.9,7.8-3.9,13.91-1.79,5.29-3.53,10.42-5.23,15.43h3.47c.49-1.35.97-2.69,1.46-4.02,2.4-6.6,4.6-12.57,6.6-17.9.93-2.49,1.78-4.64,2.56-6.47,2.26,2.38,4.3,5.01,6.1,7.91,2.6,4.2,4.55,8.7,5.85,13.5l1.8-.15V6.17h-1.65c-.6.9-1.25,1.78-1.95,2.62-.7.85-1.38,1.6-2.03,2.25-.65.65-1.25,1.2-1.8,1.65-.55.45-.93.67-1.12.67-.18,0-.92-.44-2.21-1.32.05-.1.1-.21.15-.31.7-1.39,1.32-2.44,1.88-3.17.55-.72.98-1.25,1.28-1.58.3-.44,1.42-1.33,3.38-2.66,1.95-1.33,4.22-2.17,6.83-2.5V0h-34.95v1.67c1.3.11,2.77.36,4.42.75,1.65.39,3.23.95,4.73,1.67,1.5.72,2.75,1.64,3.75,2.75.31.35.56.73.77,1.13-2.94-1.24-6.55-2.38-10.86-3.44-4.5-1.1-9.75-1.65-15.75-1.65-6.6,0-12.55.7-17.85,2.1-3.96,1.05-7.6,2.36-10.95,3.93.2-1.12.69-2.09,1.46-2.91,1.05-1.11,2.25-1.97,3.6-2.58,1.35-.61,2.67-1.03,3.98-1.25,1.3-.22,2.2-.39,2.7-.5V0H0v1.83c2.3.11,4.2.53,5.7,1.25,1.5.72,2.77,1.58,3.82,2.58Z"/>
      <path d="M100.08,90.25c-2.45,4.05-5.45,7.63-9,10.72-3.55,3.1-7.6,5.6-12.15,7.5-4.55,1.9-9.43,2.85-14.62,2.85-1.65,0-3.27-.08-4.84-.25l2.93-6.64c2.2-6.33,4.52-13.02,6.98-20.07,1.79-5.16,3.62-10.3,5.44-15.43h-3.16c-.63,1.79-1.24,3.53-1.83,5.19-2.05,5.77-3.75,10.6-5.1,14.49-1.35,3.89-2.28,6.44-2.78,7.66-1.1-3.33-2.6-7.6-4.5-12.82-1.65-4.52-3.39-9.37-5.22-14.51h-17.55c.34.95.68,1.9,1.02,2.86,2.7,7.55,5.47,15.41,8.32,23.57,1.47,4.21,3,8.54,4.6,12.98-.78-.33-1.55-.67-2.31-1.05-5.4-2.7-10-6.38-13.8-11.03-3.8-4.65-6.73-10.12-8.77-16.42-1.14-3.49-1.95-7.13-2.45-10.9H3.01c.69,4.27,1.81,8.33,3.4,12.17,2.8,6.75,6.83,12.55,12.08,17.4,5.25,4.85,11.62,8.6,19.12,11.25,3.96,1.4,8.17,2.42,12.63,3.08.98,2.72,1.98,5.46,3,8.25h1.8l3.3-7.47c1.47.07,2.95.12,4.46.12,5.6,0,10.55-.48,14.85-1.42,4.3-.95,7.95-2.05,10.95-3.3,3-1.25,5.3-2.4,6.9-3.45,1.6-1.05,2.5-1.58,2.7-1.58.5,0,1.4.7,2.7,2.1,1.3,1.4,2.55,2.95,3.75,4.65h1.8l.45-33h-1.8c-.9,4.3-2.58,8.48-5.03,12.53Z"/>
    </g>
    <g>
      <path d="M11.54,50.89c.8.23,1.25.34,1.34.34.2,0,.39-.05.56-.16s.3-.28.37-.51h.44l.19,4.72h-.48c-.28-.94-.65-1.69-1.1-2.27-.86-1.08-2.02-1.62-3.48-1.62s-2.67.58-3.6,1.74c-.93,1.16-1.4,2.76-1.4,4.8,0,1.87.49,3.37,1.47,4.49.98,1.12,2.22,1.68,3.73,1.68,1.09,0,2.09-.26,3-.78.53-.29,1.1-.74,1.73-1.33l.39.39c-.46.59-1.04,1.1-1.73,1.55-1.18.75-2.45,1.13-3.82,1.13-2.26,0-4.05-.72-5.37-2.16-1.22-1.33-1.84-3-1.84-4.99s.65-3.76,1.94-5.15c1.36-1.46,3.13-2.18,5.31-2.18.76,0,1.54.11,2.34.34Z"/>
      <path d="M16.25,59.3h5.19v1.31h-5.19v-1.31Z"/>
      <path d="M28.35,50.8v.36c-.53,0-.88.04-1.07.1-.33.11-.5.34-.5.68,0,.17.06.42.18.73s.34.83.67,1.56l3.29,7.31,2.98-7.91c.13-.35.23-.65.3-.89s.1-.44.1-.59c0-.41-.17-.69-.52-.83-.2-.08-.54-.13-1.01-.15v-.36h4.3v.36c-.44.06-.77.18-.98.36-.32.27-.64.8-.95,1.61l-4.65,11.81h-.32l-5.19-11.54c-.44-.98-.79-1.59-1.05-1.83s-.65-.38-1.15-.41v-.36h5.59Z"/>
      <path d="M35.19,64.69v-.39c.54-.06.94-.26,1.21-.61.27-.35.73-1.29,1.39-2.84l4.38-10.31h.42l5.23,11.91c.35.79.63,1.28.84,1.46s.56.31,1.05.38v.39h-5.34v-.39c.61-.05,1.01-.12,1.19-.2.18-.08.27-.27.27-.58,0-.1-.03-.28-.1-.54-.07-.26-.16-.53-.29-.82l-.84-2.02h-5.53c-.55,1.37-.87,2.21-.98,2.52s-.16.54-.16.72c0,.35.14.6.43.73.18.08.51.14,1,.18v.39h-4.16ZM44.24,59.3l-2.41-5.78-2.42,5.78h4.82Z"/>
      <path d="M50.29,64.3c.87-.09,1.43-.29,1.67-.59.25-.3.37-1.01.37-2.12v-9.25l-.29-.34c-.31-.36-.57-.59-.78-.67-.22-.09-.54-.14-.97-.15v-.39h3.58l8.11,10.05v-6.98c0-1.15-.17-1.89-.51-2.24-.23-.22-.72-.37-1.5-.44v-.39h4.93v.39c-.8.08-1.33.28-1.6.58s-.4,1.01-.4,2.11v11.05h-.36l-9.29-11.52v8.17c0,1.15.17,1.9.5,2.24.22.23.71.38,1.47.46v.39h-4.93v-.39Z"/>
      <path d="M75.39,50.89c.79.23,1.24.34,1.35.34.3,0,.51-.06.64-.17s.23-.28.32-.5h.46l.16,4.42h-.48c-.43-1.02-.88-1.78-1.33-2.28-.83-.88-1.9-1.31-3.23-1.31s-2.53.51-3.55,1.53-1.53,2.71-1.53,5.05c0,1.93.51,3.45,1.53,4.53s2.28,1.63,3.77,1.63c.25,0,.55-.02.89-.07.34-.05.67-.12.97-.23.5-.16.81-.3.93-.42.12-.12.18-.29.18-.53v-3.35c0-.81-.11-1.32-.34-1.52-.23-.2-.73-.32-1.5-.37v-.39h5.35v.39c-.52.03-.86.12-1.04.26-.29.22-.43.67-.43,1.35v4.13c0,.25-.6.57-1.81.98-1.21.41-2.37.62-3.48.62-2.05,0-3.78-.6-5.19-1.79-1.55-1.32-2.33-3.09-2.33-5.31,0-1.96.62-3.63,1.86-5.02,1.36-1.54,3.17-2.31,5.41-2.31.81,0,1.61.11,2.4.34Z"/>
      <path d="M80.62,64.3c.77-.08,1.27-.22,1.5-.41.23-.19.34-.69.34-1.47v-9.34c0-.75-.11-1.23-.34-1.46-.23-.23-.73-.37-1.51-.43v-.39h11.16l.07,3h-.53c-.18-.93-.44-1.52-.8-1.8-.36-.27-1.15-.41-2.38-.41h-2.86c-.31,0-.5.05-.57.15-.07.1-.11.29-.11.56v4.69h3.24c.9,0,1.47-.13,1.71-.4.25-.27.44-.8.59-1.61h.49v4.85h-.49c-.16-.81-.36-1.35-.6-1.62-.25-.26-.81-.39-1.7-.39h-3.24v5.2c0,.42.13.66.4.74.26.08,1.05.11,2.37.11,1.42,0,2.47-.16,3.15-.47.68-.31,1.29-1.06,1.83-2.26h.58l-.95,3.55h-11.35v-.39Z"/>
      <path d="M93.44,64.3c.87-.09,1.43-.29,1.67-.59.25-.3.37-1.01.37-2.12v-9.25l-.29-.34c-.31-.36-.57-.59-.78-.67-.22-.09-.54-.14-.97-.15v-.39h3.58l8.11,10.05v-6.98c0-1.15-.17-1.89-.51-2.24-.23-.22-.72-.37-1.5-.44v-.39h4.93v.39c-.8.08-1.33.28-1.6.58s-.4,1.01-.4,2.11v11.05h-.36l-9.29-11.52v8.17c0,1.15.17,1.9.5,2.24.22.23.71.38,1.47.46v.39h-4.93v-.39Z"/>
    </g>
  </g>
</svg>