<?xml version="1.0" encoding="UTF-8"?>
<svg id="Layer_2" data-name="Layer 2" xmlns="http://www.w3.org/2000/svg" viewBox="0 0 106.11 14.49">
  <g id="Layer_1-2" data-name="Layer 1">
    <g>
      <path d="M9.59.34c.8.23,1.25.34,1.34.34.2,0,.39-.05.56-.16s.3-.28.37-.51h.44l.19,4.72h-.48c-.28-.94-.65-1.69-1.1-2.27-.86-1.08-2.02-1.62-3.48-1.62s-2.67.58-3.6,1.74c-.93,1.16-1.4,2.76-1.4,4.8,0,1.87.49,3.37,1.47,4.49.98,1.12,2.22,1.68,3.73,1.68,1.09,0,2.09-.26,3-.78.53-.29,1.1-.74,1.73-1.33l.39.39c-.46.59-1.04,1.1-1.73,1.55-1.18.75-2.45,1.13-3.82,1.13-2.26,0-4.05-.72-5.37-2.16-1.22-1.33-1.84-3-1.84-4.99S.65,3.57,1.94,2.18C3.3.73,5.07,0,7.25,0c.76,0,1.54.11,2.34.34Z"/>
      <path d="M14.3,8.75h5.19v1.31h-5.19v-1.31Z"/>
      <path d="M26.4.25v.36c-.53,0-.88.04-1.07.1-.33.11-.5.34-.5.68,0,.17.06.42.18.73s.34.83.67,1.56l3.29,7.31,2.98-7.91c.13-.35.23-.65.3-.89s.1-.44.1-.59c0-.41-.17-.69-.52-.83-.2-.08-.54-.13-1.01-.15V.25h4.3v.36c-.44.06-.77.18-.98.36-.32.27-.64.8-.95,1.61l-4.65,11.81h-.32l-5.19-11.54c-.44-.98-.79-1.59-1.05-1.83s-.65-.38-1.15-.41V.25h5.59Z"/>
      <path d="M33.25,14.14v-.39c.54-.06.94-.26,1.21-.61.27-.35.73-1.29,1.39-2.84L40.22,0h.42l5.23,11.91c.35.79.63,1.28.84,1.46s.56.31,1.05.38v.39h-5.34v-.39c.61-.05,1.01-.12,1.19-.2.18-.08.27-.27.27-.58,0-.1-.03-.28-.1-.54-.07-.26-.16-.53-.29-.82l-.84-2.02h-5.53c-.55,1.37-.87,2.21-.98,2.52s-.16.54-.16.72c0,.35.14.6.43.73.18.08.51.14,1,.18v.39h-4.16ZM42.29,8.75l-2.41-5.78-2.42,5.78h4.82Z"/>
      <path d="M48.34,13.75c.87-.09,1.43-.29,1.67-.59.25-.3.37-1.01.37-2.12V1.79l-.29-.34c-.31-.36-.57-.59-.78-.67-.22-.09-.54-.14-.97-.15V.25h3.58l8.11,10.05V3.31c0-1.15-.17-1.89-.51-2.24-.23-.22-.72-.37-1.5-.44V.25h4.93v.39c-.8.08-1.33.28-1.6.58s-.4,1.01-.4,2.11v11.05h-.36l-9.29-11.52v8.17c0,1.15.17,1.9.5,2.24.22.23.71.38,1.47.46v.39h-4.93v-.39Z"/>
      <path d="M73.44.34c.79.23,1.24.34,1.35.34.3,0,.51-.06.64-.17s.23-.28.32-.5h.46l.16,4.42h-.48c-.43-1.02-.88-1.78-1.33-2.28-.83-.88-1.9-1.31-3.23-1.31s-2.53.51-3.55,1.53-1.53,2.71-1.53,5.05c0,1.93.51,3.45,1.53,4.53s2.28,1.63,3.77,1.63c.25,0,.55-.02.89-.07.34-.05.67-.12.97-.23.5-.16.81-.3.93-.42.12-.12.18-.29.18-.53v-3.35c0-.81-.11-1.32-.34-1.52-.23-.2-.73-.32-1.5-.37v-.39h5.35v.39c-.52.03-.86.12-1.04.26-.29.22-.43.67-.43,1.35v4.13c0,.25-.6.57-1.81.98-1.21.41-2.37.62-3.48.62-2.05,0-3.78-.6-5.19-1.79-1.55-1.32-2.33-3.09-2.33-5.31,0-1.96.62-3.63,1.86-5.02,1.36-1.54,3.17-2.31,5.41-2.31.81,0,1.61.11,2.4.34Z"/>
      <path d="M78.67,13.75c.77-.08,1.27-.22,1.5-.41.23-.19.34-.69.34-1.47V2.52c0-.75-.11-1.23-.34-1.46-.23-.23-.73-.37-1.51-.43V.25h11.16l.07,3h-.53c-.18-.93-.44-1.52-.8-1.8-.36-.27-1.15-.41-2.38-.41h-2.86c-.31,0-.5.05-.57.15-.07.1-.11.29-.11.56v4.69h3.24c.9,0,1.47-.13,1.71-.4.25-.27.44-.8.59-1.61h.49v4.85h-.49c-.16-.81-.36-1.35-.6-1.62-.25-.26-.81-.39-1.7-.39h-3.24v5.2c0,.42.13.66.4.74.26.08,1.05.11,2.37.11,1.42,0,2.47-.16,3.15-.47.68-.31,1.29-1.06,1.83-2.26h.58l-.95,3.55h-11.35v-.39Z"/>
      <path d="M91.5,13.75c.87-.09,1.43-.29,1.67-.59.25-.3.37-1.01.37-2.12V1.79l-.29-.34c-.31-.36-.57-.59-.78-.67-.22-.09-.54-.14-.97-.15V.25h3.58l8.11,10.05V3.31c0-1.15-.17-1.89-.51-2.24-.23-.22-.72-.37-1.5-.44V.25h4.93v.39c-.8.08-1.33.28-1.6.58s-.4,1.01-.4,2.11v11.05h-.36l-9.29-11.52v8.17c0,1.15.17,1.9.5,2.24.22.23.71.38,1.47.46v.39h-4.93v-.39Z"/>
    </g>
  </g>
</svg>